<svg xmlns="http://www.w3.org/2000/svg" width="64" height="64" fill="none" id="mobile-banking"><path fill="#D0D2E0" d="M36 6.666H17.333A5.333 5.333 0 0 0 12 11.999v40a5.333 5.333 0 0 0 5.333 5.334H36a5.333 5.333 0 0 0 5.333-5.334V12A5.333 5.333 0 0 0 36 6.666Z"></path><path fill="#D0D2E0" fill-rule="evenodd" d="M10.667 12a6.667 6.667 0 0 1 6.666-6.667H36A6.667 6.667 0 0 1 42.667 12v40A6.667 6.667 0 0 1 36 58.666H17.333A6.667 6.667 0 0 1 10.667 52V12Zm6.666-4a4 4 0 0 0-4 4v40a4 4 0 0 0 4 4H36a4 4 0 0 0 4-4V12a4 4 0 0 0-4-4H17.333Z" clip-rule="evenodd"></path><path fill="#959AB4" d="M52 28.666C52 34.926 46.926 40 40.667 40c-6.26 0-11.334-5.074-11.334-11.334 0-6.259 5.074-11.333 11.334-11.333C46.926 17.333 52 22.407 52 28.666Z"></path><path fill="#959AB4" fill-rule="evenodd" d="M40.667 18.667c-5.523 0-10 4.477-10 10s4.477 10 10 10 10-4.477 10-10-4.477-10-10-10ZM28 28.667C28 21.67 33.671 16 40.667 16c6.995 0 12.666 5.671 12.666 12.667 0 6.995-5.67 12.666-12.666 12.666S28 35.663 28 28.667Z" clip-rule="evenodd"></path><path fill="#2B3151" fill-rule="evenodd" d="M34.86 29.621c0-.736.597-1.333 1.333-1.333h2.386a1.333 1.333 0 1 1 0 2.667h-2.386a1.333 1.333 0 0 1-1.333-1.334zm0-7.158c0-.736.597-1.333 1.333-1.333h8.947a1.333 1.333 0 1 1 0 2.667h-8.947a1.333 1.333 0 0 1-1.333-1.334zm0 3.58c0-.737.597-1.334 1.333-1.334h8.947a1.333 1.333 0 1 1 0 2.667h-8.947a1.333 1.333 0 0 1-1.333-1.334z" clip-rule="evenodd"></path><path fill="#2B3151" fill-rule="evenodd" d="M35.25 28.678c.52-.52 1.365-.52 1.886 0l6.326 6.327a1.333 1.333 0 1 1-1.885 1.886l-6.327-6.327a1.333 1.333 0 0 1 0-1.886Z" clip-rule="evenodd"></path><path fill="#2B3151" fill-rule="evenodd" d="M40.825 26.042c0-1.142-1.037-2.245-2.544-2.245V21.13c2.775 0 5.21 2.1 5.21 4.912s-2.435 4.912-5.21 4.912v-2.666c1.507 0 2.544-1.104 2.544-2.246Z" clip-rule="evenodd"></path><path fill="#959AB4" fill-rule="evenodd" d="M42.667 50.667h-32V48h32v2.667Z" clip-rule="evenodd"></path><path fill="#2B3151" fill-rule="evenodd" d="M24 54.666c0-.736.597-1.333 1.333-1.333H28A1.333 1.333 0 0 1 28 56h-2.667A1.333 1.333 0 0 1 24 54.666Z" clip-rule="evenodd"></path></svg>