<svg width="350" height="164" viewBox="0 0 350 164" fill="none" xmlns="http://www.w3.org/2000/svg">
<mask id="path-1-inside-1_1014_993" fill="white">
<path fill-rule="evenodd" clip-rule="evenodd" d="M8 0C3.58172 0 0 3.58172 0 8V13.0224C0.164681 13.0076 0.331455 13 0.5 13C3.53757 13 6 15.4624 6 18.5C6 21.5376 3.53757 24 0.5 24C0.331455 24 0.164681 23.9924 0 23.9776V34.0224C0.164681 34.0076 0.331455 34 0.5 34C3.53757 34 6 36.4624 6 39.5C6 42.5376 3.53757 45 0.5 45C0.331455 45 0.164681 44.9924 0 44.9776V55.0224C0.164681 55.0076 0.331455 55 0.5 55C3.53757 55 6 57.4624 6 60.5C6 63.5376 3.53757 66 0.5 66C0.331455 66 0.164681 65.9924 0 65.9776V76.0224C0.164681 76.0076 0.331455 76 0.5 76C3.53757 76 6 78.4624 6 81.5C6 84.5376 3.53757 87 0.5 87C0.331455 87 0.164681 86.9924 0 86.9776V97.0224C0.164681 97.0076 0.331455 97 0.5 97C3.53757 97 6 99.4624 6 102.5C6 105.538 3.53757 108 0.5 108C0.331455 108 0.164681 107.992 0 107.978V118.022C0.164681 118.008 0.331455 118 0.5 118C3.53757 118 6 120.462 6 123.5C6 126.538 3.53757 129 0.5 129C0.331455 129 0.164681 128.992 0 128.978V139.022C0.164681 139.008 0.331455 139 0.5 139C3.53757 139 6 141.462 6 144.5C6 147.538 3.53757 150 0.5 150C0.331455 150 0.164681 149.992 0 149.978V156C0 157.47 0.396481 158.847 1.08834 160.031C3.22158 160.258 4.99054 161.704 5.68461 163.66C6.41755 163.881 7.19489 164 8 164H342C346.418 164 350 160.418 350 156V8C350 3.58172 346.418 0 342 0H8Z"/>
</mask>
<path fill-rule="evenodd" clip-rule="evenodd" d="M8 0C3.58172 0 0 3.58172 0 8V13.0224C0.164681 13.0076 0.331455 13 0.5 13C3.53757 13 6 15.4624 6 18.5C6 21.5376 3.53757 24 0.5 24C0.331455 24 0.164681 23.9924 0 23.9776V34.0224C0.164681 34.0076 0.331455 34 0.5 34C3.53757 34 6 36.4624 6 39.5C6 42.5376 3.53757 45 0.5 45C0.331455 45 0.164681 44.9924 0 44.9776V55.0224C0.164681 55.0076 0.331455 55 0.5 55C3.53757 55 6 57.4624 6 60.5C6 63.5376 3.53757 66 0.5 66C0.331455 66 0.164681 65.9924 0 65.9776V76.0224C0.164681 76.0076 0.331455 76 0.5 76C3.53757 76 6 78.4624 6 81.5C6 84.5376 3.53757 87 0.5 87C0.331455 87 0.164681 86.9924 0 86.9776V97.0224C0.164681 97.0076 0.331455 97 0.5 97C3.53757 97 6 99.4624 6 102.5C6 105.538 3.53757 108 0.5 108C0.331455 108 0.164681 107.992 0 107.978V118.022C0.164681 118.008 0.331455 118 0.5 118C3.53757 118 6 120.462 6 123.5C6 126.538 3.53757 129 0.5 129C0.331455 129 0.164681 128.992 0 128.978V139.022C0.164681 139.008 0.331455 139 0.5 139C3.53757 139 6 141.462 6 144.5C6 147.538 3.53757 150 0.5 150C0.331455 150 0.164681 149.992 0 149.978V156C0 157.47 0.396481 158.847 1.08834 160.031C3.22158 160.258 4.99054 161.704 5.68461 163.66C6.41755 163.881 7.19489 164 8 164H342C346.418 164 350 160.418 350 156V8C350 3.58172 346.418 0 342 0H8Z" fill="white"/>
<path d="M0 13.0224H-1V14.1166L0.0897507 14.0184L0 13.0224ZM0 23.9776L0.0897564 22.9816L-1 22.8834V23.9776H0ZM0 34.0224H-1V35.1166L0.089745 35.0184L0 34.0224ZM0 44.9776L0.089745 43.9816L-1 43.8834V44.9776H0ZM0 55.0224H-1V56.1166L0.089745 56.0184L0 55.0224ZM0 65.9776L0.089745 64.9816L-1 64.8834V65.9776H0ZM0 76.0224H-1V77.1166L0.089745 77.0184L0 76.0224ZM0 86.9776L0.089745 85.9816L-1 85.8834V86.9776H0ZM0 97.0224H-1V98.1166L0.089745 98.0184L0 97.0224ZM0 107.978L0.089745 106.982L-1 106.883V107.978H0ZM0 118.022H-1V119.117L0.089745 119.018L0 118.022ZM0 128.978L0.0897907 127.982L-1 127.883V128.978H0ZM0 139.022H-1V140.117L0.0897907 140.018L0 139.022ZM0 149.978L0.0897907 148.982L-1 148.883V149.978H0ZM1.08834 160.031L0.224996 160.536L0.480028 160.972L0.982595 161.025L1.08834 160.031ZM5.68461 163.66L4.74222 163.994L4.91141 164.471L5.39562 164.617L5.68461 163.66ZM1 8C1 4.13401 4.13401 1 8 1V-1C3.02944 -1 -1 3.02944 -1 8H1ZM1 13.0224V8H-1V13.0224H1ZM0.5 12C0.30145 12 0.104729 12.0089 -0.0897507 12.0265L0.0897507 14.0184C0.224633 14.0062 0.36146 14 0.5 14V12ZM7 18.5C7 14.9101 4.08985 12 0.5 12V14C2.98528 14 5 16.0147 5 18.5H7ZM0.5 25C4.08985 25 7 22.0899 7 18.5H5C5 20.9853 2.98528 23 0.5 23V25ZM-0.0897564 24.9735C0.104735 24.9911 0.301458 25 0.5 25V23C0.361452 23 0.224627 22.9938 0.0897564 22.9816L-0.0897564 24.9735ZM1 34.0224V23.9776H-1V34.0224H1ZM0.5 33C0.301443 33 0.104724 33.0089 -0.089745 33.0265L0.089745 35.0184C0.224639 35.0062 0.361468 35 0.5 35V33ZM7 39.5C7 35.9101 4.08985 33 0.5 33V35C2.98528 35 5 37.0147 5 39.5H7ZM0.5 46C4.08985 46 7 43.0899 7 39.5H5C5 41.9853 2.98528 44 0.5 44V46ZM-0.089745 45.9735C0.104724 45.9911 0.301443 46 0.5 46V44C0.361468 44 0.224639 43.9938 0.089745 43.9816L-0.089745 45.9735ZM1 55.0224V44.9776H-1V55.0224H1ZM0.089745 56.0184C0.224639 56.0062 0.361468 56 0.5 56V54C0.301443 54 0.104724 54.0089 -0.089745 54.0265L0.089745 56.0184ZM0.5 56C2.98528 56 5 58.0147 5 60.5H7C7 56.9101 4.08985 54 0.5 54V56ZM5 60.5C5 62.9853 2.98528 65 0.5 65V67C4.08985 67 7 64.0899 7 60.5H5ZM0.5 65C0.361468 65 0.224639 64.9938 0.089745 64.9816L-0.089745 66.9735C0.104724 66.9911 0.301443 67 0.5 67V65ZM1 76.0224V65.9776H-1V76.0224H1ZM0.5 75C0.301443 75 0.104724 75.0089 -0.089745 75.0265L0.089745 77.0184C0.224639 77.0062 0.361468 77 0.5 77V75ZM7 81.5C7 77.9101 4.08985 75 0.5 75V77C2.98528 77 5 79.0147 5 81.5H7ZM0.5 88C4.08985 88 7 85.0899 7 81.5H5C5 83.9853 2.98528 86 0.5 86V88ZM-0.089745 87.9735C0.104724 87.9911 0.301443 88 0.5 88V86C0.361468 86 0.224639 85.9938 0.089745 85.9816L-0.089745 87.9735ZM1 97.0224V86.9776H-1V97.0224H1ZM0.089745 98.0184C0.224639 98.0062 0.361468 98 0.5 98V96C0.301443 96 0.104724 96.0089 -0.089745 96.0265L0.089745 98.0184ZM0.5 98C2.98528 98 5 100.015 5 102.5H7C7 98.9101 4.08985 96 0.5 96V98ZM5 102.5C5 104.985 2.98528 107 0.5 107V109C4.08985 109 7 106.09 7 102.5H5ZM0.5 107C0.361468 107 0.224639 106.994 0.089745 106.982L-0.089745 108.974C0.104724 108.991 0.301443 109 0.5 109V107ZM1 118.022V107.978H-1V118.022H1ZM0.5 117C0.301443 117 0.104724 117.009 -0.089745 117.026L0.089745 119.018C0.224639 119.006 0.361468 119 0.5 119V117ZM7 123.5C7 119.91 4.08985 117 0.5 117V119C2.98528 119 5 121.015 5 123.5H7ZM0.5 130C4.08985 130 7 127.09 7 123.5H5C5 125.985 2.98528 128 0.5 128V130ZM-0.0897907 129.974C0.104769 129.991 0.301504 130 0.5 130V128C0.361407 128 0.224593 127.994 0.0897907 127.982L-0.0897907 129.974ZM1 139.022V128.978H-1V139.022H1ZM0.0897907 140.018C0.224593 140.006 0.361407 140 0.5 140V138C0.301504 138 0.104769 138.009 -0.0897907 138.026L0.0897907 140.018ZM0.5 140C2.98528 140 5 142.015 5 144.5H7C7 140.91 4.08985 138 0.5 138V140ZM5 144.5C5 146.985 2.98528 149 0.5 149V151C4.08985 151 7 148.09 7 144.5H5ZM0.5 149C0.361407 149 0.224593 148.994 0.0897907 148.982L-0.0897907 150.974C0.104769 150.991 0.301504 151 0.5 151V149ZM1 156V149.978H-1V156H1ZM1.95168 159.526C1.34689 158.492 1 157.288 1 156H-1C-1 157.652 -0.553924 159.203 0.224996 160.536L1.95168 159.526ZM6.62701 163.325C5.80702 161.015 3.71817 159.305 1.19409 159.037L0.982595 161.025C2.72499 161.211 4.17406 162.394 4.74222 163.994L6.62701 163.325ZM8 163C7.29384 163 6.61384 162.896 5.9736 162.702L5.39562 164.617C6.22127 164.866 7.09593 165 8 165V163ZM342 163H8V165H342V163ZM349 156C349 159.866 345.866 163 342 163V165C346.971 165 351 160.971 351 156H349ZM349 8V156H351V8H349ZM342 1C345.866 1 349 4.13401 349 8H351C351 3.02944 346.971 -1 342 -1V1ZM8 1H342V-1H8V1Z" fill="#DADCE0" mask="url(#path-1-inside-1_1014_993)"/>
</svg>
